<?xml version="1.0" standalone="no"?>
<!DOCTYPE svg PUBLIC "-//W3C//DTD SVG 20010904//EN"
 "http://www.w3.org/TR/2001/REC-SVG-20010904/DTD/svg10.dtd">
<svg version="1.0" xmlns="http://www.w3.org/2000/svg"
 width="848.000000pt" height="294.000000pt" viewBox="0 0 848.000000 294.000000"
 preserveAspectRatio="xMidYMid meet">

<g transform="translate(0.000000,294.000000) scale(0.100000,-0.100000)"
fill="#000000" stroke="none">
<path d="M433 2620 c-12 -5 -40 -27 -61 -50 -76 -78 -74 -38 -70 -1120 3 -801
6 -961 18 -995 19 -53 88 -121 137 -135 27 -8 207 -10 604 -8 l566 3 36 28
c20 15 49 49 64 75 l28 46 -4 651 c-1 357 -5 653 -7 657 -3 5 -133 8 -289 8
l-284 0 -3 -456 -3 -456 -37 -34 c-33 -30 -44 -34 -92 -34 -39 0 -60 6 -80 21
-55 43 -54 33 -57 605 -4 590 -7 563 64 601 30 17 108 18 1290 21 888 2 1264
-1 1278 -8 50 -27 75 -124 47 -185 -6 -14 -28 -36 -47 -48 l-36 -22 -655 -5
c-539 -4 -659 -8 -680 -19 -52 -30 -83 -57 -105 -96 l-24 -40 -2 -575 c-2
-571 -2 -575 19 -617 25 -47 74 -89 129 -109 31 -11 218 -13 976 -14 l937 0 0
295 0 294 -732 3 -733 3 -37 23 c-68 42 -86 144 -37 206 43 54 65 56 745 56
l622 0 53 28 c39 20 62 41 84 77 l30 48 0 551 c0 583 -1 592 -47 652 -12 15
-42 40 -67 55 l-45 29 -1735 -1 c-985 0 -1746 -4 -1758 -9z"/>
<path d="M4410 1552 l0 -1078 25 -51 c30 -59 73 -96 130 -112 50 -14 1920 -15
1979 -1 63 14 118 59 149 119 l27 55 0 778 0 779 388 -3 c385 -3 387 -3 424
-26 26 -16 41 -35 48 -60 8 -25 10 -191 8 -507 -3 -436 -4 -473 -21 -499 -33
-49 -75 -60 -257 -63 -189 -3 -231 -14 -281 -70 -51 -59 -59 -89 -59 -228 0
-105 3 -132 19 -164 26 -50 81 -97 128 -110 24 -7 199 -11 467 -11 416 0 431
1 473 21 24 12 55 36 68 53 57 74 55 35 57 1095 3 906 2 979 -14 1014 -24 54
-54 88 -96 114 l-37 23 -946 0 -947 0 -6 -312 c-4 -172 -6 -560 -4 -863 3
-514 2 -552 -15 -583 -26 -48 -73 -74 -124 -69 -57 6 -91 30 -114 80 -18 40
-19 78 -19 818 0 427 -3 810 -6 852 l-7 77 -284 0 -284 0 1 -832 c0 -458 1
-850 0 -870 -1 -93 -119 -150 -212 -102 -65 34 -62 -1 -68 949 l-5 860 -292 3
-293 2 0 -1078z"/>
</g>
</svg>
